<?xml version="1.0" encoding="UTF-8"?>
<!DOCTYPE svg PUBLIC "-//W3C//DTD SVG 1.1//EN" "http://www.w3.org/Graphics/SVG/1.1/DTD/svg11.dtd">
<svg xmlns="http://www.w3.org/2000/svg" version="1.1" width="225px" height="225px" style="shape-rendering:geometricPrecision; text-rendering:geometricPrecision; image-rendering:optimizeQuality; fill-rule:evenodd; clip-rule:evenodd" xmlns:xlink="http://www.w3.org/1999/xlink">
<g><path style="opacity:1" fill="#fafafa" d="M 224.5,13.5 C 224.5,21.8333 224.5,30.1667 224.5,38.5C 222.005,43.9244 217.671,46.5911 211.5,46.5C 204.199,94.9705 196.033,143.304 187,191.5C 183.247,205.586 174.414,214.752 160.5,219C 127.466,219.957 94.466,219.623 61.5,218C 48.7715,212.936 40.6048,203.769 37,190.5C 35.8402,185.208 35.0068,179.875 34.5,174.5C 34.5701,170.575 33.9034,166.909 32.5,163.5C 30.0882,151.696 28.0882,139.696 26.5,127.5C 26.8893,124.447 26.2227,121.78 24.5,119.5C 20.5,95.1667 16.5,70.8333 12.5,46.5C 2.46936,45.1409 -1.86397,39.4743 -0.5,29.5C -0.5,25.8333 -0.5,22.1667 -0.5,18.5C -0.671903,13.0169 1.66143,8.85024 6.5,6C 77.1667,5.33333 147.833,5.33333 218.5,6C 221.59,7.70743 223.59,10.2074 224.5,13.5 Z M 33.5,46.5 C 35.8568,46.3367 38.1902,46.5034 40.5,47C 44.0416,50.7101 47.7083,54.2101 51.5,57.5C 47.1819,62.3185 42.6819,66.9852 38,71.5C 36.0683,63.2432 34.5683,54.9098 33.5,46.5 Z M 55.5,46.5 C 58.0593,46.1984 60.3926,46.5318 62.5,47.5C 61.2058,48.2899 60.0391,49.2899 59,50.5C 57.6244,49.2949 56.4577,47.9616 55.5,46.5 Z M 77.5,46.5 C 83.8421,46.3338 90.1754,46.5005 96.5,47C 99.2193,49.3822 101.553,52.0488 103.5,55C 97.6667,62.1667 91.1667,68.6667 84,74.5C 77.8766,69.3787 72.0433,63.8787 66.5,58C 70.3705,54.2977 74.0371,50.4643 77.5,46.5 Z M 140.5,74.5 C 139.391,74.4431 138.391,74.1098 137.5,73.5C 131.703,67.2019 125.703,61.0352 119.5,55C 122.167,52.3333 124.833,49.6667 127.5,47C 133.5,46.3333 139.5,46.3333 145.5,47C 149.833,50 153.5,53.6667 156.5,58C 150.964,63.3686 145.63,68.8686 140.5,74.5 Z M 160.5,46.5 C 163.059,46.1984 165.393,46.5318 167.5,47.5C 166.206,48.2899 165.039,49.2899 164,50.5C 162.624,49.2949 161.458,47.9616 160.5,46.5 Z M 182.5,46.5 C 185.167,46.5 187.833,46.5 190.5,46.5C 189.924,54.9538 188.591,63.2871 186.5,71.5C 181.052,67.5553 176.052,63.0553 171.5,58C 175.37,54.2977 179.037,50.4643 182.5,46.5 Z M 110.5,63.5 C 111.552,63.3505 112.552,63.5172 113.5,64C 119.682,70.0145 125.682,76.1812 131.5,82.5C 125.167,89.5 118.5,96.1667 111.5,102.5C 104.681,96.1814 98.0144,89.6814 91.5,83C 98.036,76.6315 104.369,70.1315 110.5,63.5 Z M 58.5,65.5 C 64.6314,71.1305 70.6314,76.9638 76.5,83C 69.9856,89.6814 63.3189,96.1814 56.5,102.5C 50.4326,97.4354 45.0992,91.7687 40.5,85.5C 46.1217,78.5422 52.1217,71.8756 58.5,65.5 Z M 163.5,65.5 C 170.575,72.0394 177.575,78.8727 184.5,86C 178.985,91.6816 173.319,97.1816 167.5,102.5C 160.5,96.1667 153.833,89.5 147.5,82.5C 152.855,76.813 158.188,71.1463 163.5,65.5 Z M 102.5,108.5 C 103.734,110.398 103.401,112.065 101.5,113.5C 95.5353,118.964 89.7019,124.63 84,130.5C 77.3186,123.986 70.8186,117.319 64.5,110.5C 70.8186,103.681 77.3186,97.0144 84,90.5C 90.3395,96.3398 96.5062,102.34 102.5,108.5 Z M 138.5,90.5 C 146.091,96.4212 153.091,103.088 159.5,110.5C 153.167,117.5 146.5,124.167 139.5,130.5C 132.5,124.167 125.833,117.5 119.5,110.5C 125.855,103.813 132.188,97.1462 138.5,90.5 Z M 43.5,104.5 C 44.9544,106.458 46.621,108.291 48.5,110C 47.7297,111.775 46.563,113.275 45,114.5C 43.9571,111.243 43.4571,107.91 43.5,104.5 Z M 180.5,104.5 C 181.097,104.735 181.43,105.235 181.5,106C 181.98,114.622 179.647,115.955 174.5,110C 176.396,107.932 178.396,106.099 180.5,104.5 Z M 55.5,118.5 C 60.3287,122.089 64.9954,125.922 69.5,130C 71.5977,132.854 73.931,135.521 76.5,138C 69.9856,144.681 63.3189,151.181 56.5,157.5C 54.5171,156.018 52.6837,154.351 51,152.5C 49.1509,143.896 48.1509,135.23 48,126.5C 50.705,123.964 53.205,121.297 55.5,118.5 Z M 110.5,118.5 C 118.091,124.421 125.091,131.088 131.5,138.5C 125.471,145.363 118.971,151.696 112,157.5C 104.876,151.378 98.0427,144.878 91.5,138C 98.036,131.631 104.369,125.131 110.5,118.5 Z M 166.5,118.5 C 170.947,121.113 174.614,124.613 177.5,129C 176.167,136.333 174.833,143.667 173.5,151C 171.333,153.167 169.167,155.333 167,157.5C 159.833,151.667 153.333,145.167 147.5,138C 153.353,130.981 159.686,124.481 166.5,118.5 Z M 83.5,145.5 C 91.0513,151.77 98.0513,158.603 104.5,166C 97.9856,172.681 91.3189,179.181 84.5,185.5C 77.5,179.167 70.8333,172.5 64.5,165.5C 70.8549,158.813 77.1882,152.146 83.5,145.5 Z M 157.5,167.5 C 155.5,168.833 153.833,170.5 152.5,172.5C 152.167,173.5 151.5,174.167 150.5,174.5C 148.5,175.833 146.833,177.5 145.5,179.5C 143.229,181.266 141.063,183.266 139,185.5C 132.667,179.167 126.333,172.833 120,166.5C 119.333,165.833 119.333,165.167 120,164.5C 126.333,158.167 132.667,151.833 139,145.5C 145.779,152.279 152.613,159.113 159.5,166C 158.956,166.717 158.289,167.217 157.5,167.5 Z M 55.5,173.5 C 62.7438,179.238 69.5772,185.572 76,192.5C 71.9695,200.079 66.9695,200.412 61,193.5C 56.9902,187.464 55.1568,180.797 55.5,173.5 Z M 127.5,197.5 C 117.582,198.474 107.582,198.807 97.5,198.5C 94.4683,197.001 92.9683,194.668 93,191.5C 99.043,185.122 105.376,179.122 112,173.5C 118.29,178.788 124.29,184.455 130,190.5C 131.548,193.449 130.715,195.782 127.5,197.5 Z M 165.5,173.5 C 167.849,173.458 169.182,174.625 169.5,177C 168.94,184.267 166.273,190.6 161.5,196C 156.422,199.789 151.922,199.289 148,194.5C 147.333,193.833 147.333,193.167 148,192.5C 153.671,185.996 159.505,179.663 165.5,173.5 Z"/></g>
<g><path style="opacity:0.765" fill="#9a9a9a" d="M 55.5,46.5 C 58.0241,45.1997 60.6908,45.1997 63.5,46.5C 63.3764,47.1067 63.0431,47.44 62.5,47.5C 60.3926,46.5318 58.0593,46.1984 55.5,46.5 Z"/></g>
<g><path style="opacity:0.765" fill="#999999" d="M 160.5,46.5 C 163.024,45.1997 165.691,45.1997 168.5,46.5C 168.376,47.1067 168.043,47.44 167.5,47.5C 165.393,46.5318 163.059,46.1984 160.5,46.5 Z"/></g>
<g><path style="opacity:1" fill="#a8a8a8" d="M 137.5,73.5 C 138.391,74.1098 139.391,74.4431 140.5,74.5C 139.053,75.8852 138.053,75.5518 137.5,73.5 Z"/></g>
<g><path style="opacity:1" fill="#c8c8c8" d="M 102.5,108.5 C 104.344,109.204 104.844,110.537 104,112.5C 103.329,113.252 102.496,113.586 101.5,113.5C 103.401,112.065 103.734,110.398 102.5,108.5 Z"/></g>
<g><path style="opacity:1" fill="#bebebe" d="M 24.5,119.5 C 26.2227,121.78 26.8893,124.447 26.5,127.5C 25.469,125.039 24.8023,122.373 24.5,119.5 Z"/></g>
<g><path style="opacity:1" fill="#c7c7c7" d="M 32.5,163.5 C 33.9034,166.909 34.5701,170.575 34.5,174.5C 33.0966,171.091 32.4299,167.425 32.5,163.5 Z"/></g>
<g><path style="opacity:1" fill="#c0c0c0" d="M 157.5,167.5 C 156.833,170.167 155.167,171.833 152.5,172.5C 153.833,170.5 155.5,168.833 157.5,167.5 Z"/></g>
<g><path style="opacity:1" fill="#c0c0c0" d="M 150.5,174.5 C 149.833,177.167 148.167,178.833 145.5,179.5C 146.833,177.5 148.5,175.833 150.5,174.5 Z"/></g>
<g><path style="opacity:0.194" fill="#888888" d="M 127.5,197.5 C 122.881,198.828 117.881,199.494 112.5,199.5C 107.322,199.499 102.322,199.166 97.5,198.5C 107.582,198.807 117.582,198.474 127.5,197.5 Z"/></g>
</svg>
