<svg width="28" height="28" viewBox="0 0 28 28" fill="none" xmlns="http://www.w3.org/2000/svg">
<g clip-path="url(#clip0_76_110)">
<path d="M0 4.66665C0 2.95068 1.39514 1.55554 3.11111 1.55554H10.8889V7.77776C10.8889 8.63818 11.584 9.33332 12.4444 9.33332H18.6667V15.4437L14.4472 19.6632C13.9465 20.1639 13.5965 20.7861 13.4264 21.4715L12.5174 25.1125C12.4056 25.5597 12.4299 26.0264 12.5806 26.4493H3.11111C1.39514 26.4493 0 25.0542 0 23.3382V4.66665ZM18.6667 7.77776H12.4444V1.55554L18.6667 7.77776ZM26.7264 13.0132L27.4264 13.7132C28.1847 14.4715 28.1847 15.7014 27.4264 16.4646L25.9972 17.8937L22.5458 14.4423L23.975 13.0132C24.7333 12.2548 25.9632 12.2548 26.7264 13.0132ZM15.1618 21.8264L21.4424 15.5458L24.8937 18.9972L18.6132 25.2729C18.4139 25.4722 18.166 25.6132 17.8889 25.6812L14.9674 26.4104C14.7 26.4785 14.4229 26.4007 14.2285 26.2062C14.034 26.0118 13.9563 25.7347 14.0243 25.4673L14.7535 22.5458C14.8215 22.2736 14.9625 22.0208 15.1618 21.8215V21.8264Z" fill="white"/>
</g>
<defs>
<clipPath id="clip0_76_110">
<rect width="28" height="28" fill="white"/>
</clipPath>
</defs>
</svg>
