<svg width="28" height="28" viewBox="0 0 28 28" fill="none" xmlns="http://www.w3.org/2000/svg">
<g clip-path="url(#clip0_76_115)">
<path d="M18.375 19.25C23.6906 19.25 28 14.9406 28 9.625C28 4.30938 23.6906 0 18.375 0C13.0594 0 8.75 4.30938 8.75 9.625C8.75 10.6477 8.90859 11.6375 9.20391 12.5617L0.382812 21.3828C0.136719 21.6289 0 21.9625 0 22.3125V26.6875C0 27.4148 0.585156 28 1.3125 28H5.6875C6.41484 28 7 27.4148 7 26.6875V24.5H9.1875C9.91484 24.5 10.5 23.9148 10.5 23.1875V21H12.6875C13.0375 21 13.3711 20.8633 13.6172 20.6172L15.4383 18.7961C16.3625 19.0914 17.3523 19.25 18.375 19.25ZM20.5625 5.25C21.1427 5.25 21.6991 5.48047 22.1093 5.8907C22.5195 6.30094 22.75 6.85734 22.75 7.4375C22.75 8.01766 22.5195 8.57406 22.1093 8.9843C21.6991 9.39453 21.1427 9.625 20.5625 9.625C19.9823 9.625 19.4259 9.39453 19.0157 8.9843C18.6055 8.57406 18.375 8.01766 18.375 7.4375C18.375 6.85734 18.6055 6.30094 19.0157 5.8907C19.4259 5.48047 19.9823 5.25 20.5625 5.25Z" fill="#091833"/>
</g>
<defs>
<clipPath id="clip0_76_115">
<rect width="28" height="28" fill="white"/>
</clipPath>
</defs>
</svg>
